<svg width="39" height="39" viewBox="0 0 39 39" fill="none" xmlns="http://www.w3.org/2000/svg">
<path d="M13.2842 20.6273C12.6367 20.8787 11.9055 20.6045 11.5856 19.9875L5.64415 8.54647C4.95098 7.19061 5.47657 5.53768 6.83243 4.84452C6.91622 4.80643 6.99239 4.76834 7.07618 4.73026C8.60723 4.11327 10.2906 5.01209 10.7172 6.566L10.7248 6.58885L14.0992 19.0125C14.2744 19.6752 13.924 20.376 13.2842 20.6273Z" fill="#F98500"/>
<path d="M12.9643 14.8611L11.2809 15.5238C10.9686 15.6381 10.6182 15.4857 10.4888 15.1734C10.3669 14.8611 10.5192 14.5031 10.8315 14.3813L12.6368 13.6729L12.9643 14.8611Z" fill="#FA6D00"/>
<path d="M13.6192 17.2452L12.172 17.786C11.8597 17.8926 11.5169 17.7479 11.3798 17.4356C11.2579 17.1233 11.4102 16.7653 11.7302 16.6434L13.2993 16.0569L13.6192 17.2452Z" fill="#FA6D00"/>
<path d="M20.4518 9.43753C19.9415 9.08714 19.6825 8.47015 19.7968 7.85315C20.0786 6.43636 19.1645 5.05765 17.7401 4.76819C17.7249 4.76819 17.702 4.76058 17.6868 4.76058C17.1003 4.66155 16.6128 4.24261 16.43 3.67132C16.3843 3.53421 16.3309 3.3971 16.27 3.26761C15.6225 1.97269 14.0534 1.4471 12.7585 2.09456C11.5321 2.70394 10.9837 4.15882 11.5016 5.42327C11.7682 6.07835 11.8977 6.67249 11.4483 7.30472C10.6104 8.48538 10.8923 10.1231 12.0729 10.9534C12.0806 10.961 12.0958 10.9686 12.1034 10.9762C12.6138 11.3342 12.8575 11.9588 12.7356 12.5682C12.4614 13.985 13.3907 15.3637 14.8151 15.6379C16.0948 15.8817 17.3516 15.158 17.7858 13.9317C19.0807 14.5791 20.6499 14.0459 21.2974 12.7586C21.8763 11.5932 21.5182 10.184 20.4518 9.43753Z" fill="#598C44"/>
<path d="M26.3935 11.5324C26.0507 11.0144 26.0431 10.3441 26.3783 9.81848C27.1781 8.61497 26.8429 6.98489 25.6394 6.18509C25.6242 6.17747 25.6089 6.16223 25.5937 6.15462C24.8472 5.68235 24.9005 5.01204 24.8396 4.2427C24.733 2.80306 23.4685 1.72141 22.0289 1.82806C20.6654 1.9347 19.6066 3.06966 19.6066 4.44075C19.6066 5.14915 19.4999 5.74329 18.8525 6.16223C17.6337 6.93919 17.2757 8.56165 18.0603 9.7804C18.0679 9.78801 18.0755 9.80325 18.0831 9.81087C18.4183 10.3365 18.4183 11.0068 18.0679 11.5247C17.2833 12.7359 17.6261 14.3583 18.8372 15.1505C19.9265 15.8589 21.3738 15.6609 22.2269 14.6859C23.1867 15.7675 24.8396 15.8741 25.9212 14.922C26.8962 14.0689 27.0943 12.6216 26.3935 11.5324Z" fill="#5F9548"/>
<path d="M30.4687 18.8906L23.1562 16.4531L27.1857 4.37223C27.6732 2.91734 29.1586 1.79 30.7049 1.82809C31.6646 1.85094 32.5635 2.03375 33.3176 2.64312C34.5363 3.61812 35.0162 5.2482 34.5211 6.72594L30.4687 18.8906Z" fill="#FFB531"/>
<path d="M25.5938 12.7969V34.7344H7.3125V12.7969L9.14062 14.0156L10.9688 12.7969L12.7969 14.0156L14.625 12.7969L16.4531 14.0156L18.2812 12.7969L20.1094 14.0156L21.9375 12.7969L23.7656 14.0156L25.5938 12.7969Z" fill="#FFB531"/>
<path d="M25.5938 17.8469V34.7342H7.3125V31.0399C14.0232 28.7852 20.673 24.6795 25.5938 17.8469Z" fill="#FCAC1F"/>
<path d="M32.9062 12.7969V34.7344H25.5938V12.7969L27.4219 14.0156L29.25 12.7969L31.0781 14.0156L32.9062 12.7969Z" fill="#F98500"/>
<path d="M7.42676 37.1719C10.1191 37.1719 12.3018 34.9893 12.3018 32.2969C12.3018 29.6045 10.1191 27.4219 7.42676 27.4219C4.73437 27.4219 2.55176 29.6045 2.55176 32.2969C2.55176 34.9893 4.73437 37.1719 7.42676 37.1719Z" fill="#F35244"/>
<path d="M17.6719 24.375L18.2812 25.5938C17.5271 26.3479 17.2225 27.4447 17.4814 28.4883L17.6719 29.25H15.2344V28.3207C15.2344 26.6525 16.1789 25.1215 17.6719 24.375Z" fill="#5F9548"/>
<path d="M14.0992 37.1719C13.3299 37.1719 12.6443 36.6691 12.4234 35.9303L11.0524 31.3523C10.6715 30.0803 11.5094 28.6406 12.9186 28.6406C13.6041 28.6406 14.2363 28.9986 14.5867 29.5852L15.8436 31.6875V35.4275C15.8436 36.3873 15.059 37.1719 14.0992 37.1719Z" fill="#FA9F0C"/>
<path d="M18.8068 37.1719C19.5762 37.1719 20.2617 36.6691 20.4826 35.9303L21.8537 31.3523C22.2422 30.065 21.3891 28.6406 19.9875 28.6406C19.302 28.6406 18.6697 28.9986 18.3193 29.5852L17.0625 31.6875V35.4275C17.0625 36.3873 17.8471 37.1719 18.8068 37.1719Z" fill="#FA9F0C"/>
<path d="M16.4531 28.6406C17.4662 28.6406 18.2812 29.4557 18.2812 30.4688V35.3438C18.2812 36.3568 17.4662 37.1719 16.4531 37.1719C15.44 37.1719 14.625 36.3568 14.625 35.3438V30.4688C14.625 29.4557 15.44 28.6406 16.4531 28.6406Z" fill="#FFB531"/>
<path d="M33.6983 2.1708C32.571 1.26436 31.0247 0.990137 29.5546 1.4167C28.1226 1.83564 27.0485 2.84873 26.6067 4.18174L24.1464 11.5704L23.8569 11.1438L22.8362 11.8218V9.36143L24.5272 8.23408L23.8493 7.221L22.8286 7.89893V5.10342H21.6099V7.89131L20.5968 7.21338L19.9189 8.22646L21.6099 9.35381V11.8142L20.5968 11.1362L19.9189 12.1493L20.8558 12.7739L20.1017 13.2767L18.6087 12.2864C18.5401 12.2407 18.4716 12.2103 18.3954 12.195C18.4411 12.0808 18.5021 11.9665 18.5706 11.8599C19.0429 11.1362 19.0429 10.2069 18.5782 9.47568C18.1517 8.82822 18.1669 7.86084 18.6087 7.21338C18.7991 6.93916 19.5761 6.3831 19.7817 6.10889C20.1855 5.57568 20.2312 4.96631 20.2769 4.43311C20.3073 4.01416 20.3378 3.64854 20.5206 3.3667C21.1071 2.42979 22.3487 2.14795 23.2857 2.73447C23.4837 2.85635 23.6513 3.01631 23.796 3.1915C24.1235 3.60283 24.154 4.01416 24.1921 4.57021C24.2073 4.76064 24.2226 4.96631 24.2454 5.17959L25.4565 5.02725C25.4337 4.84443 25.4185 4.66162 25.4108 4.48643C25.3651 3.82373 25.3118 3.1458 24.7558 2.4374C23.6513 1.03584 21.6251 0.799707 20.2235 1.89658C19.9341 2.1251 19.6827 2.39932 19.4847 2.71162C19.1495 3.24482 19.1038 3.82373 19.0581 4.32646C19.0505 4.44072 19.0429 4.54736 19.0276 4.654C18.6544 4.40264 18.2278 4.22744 17.7784 4.14365C17.4128 4.08271 17.1081 3.82373 16.9939 3.47334C16.7272 2.64307 16.1483 1.95752 15.3714 1.56143C14.6097 1.15771 13.7185 1.08154 12.8958 1.34814C11.6847 1.75186 10.8011 2.88682 10.6944 4.18936C10.6563 4.68447 10.7782 5.11865 10.9001 5.50713C10.3288 4.57021 9.33096 3.97607 8.23408 3.90752L8.25693 1.20342L7.03818 1.1958L7.02295 2.95537L6.2917 1.08154L5.17959 1.54619L5.91084 3.42002L4.70732 2.14033L3.82373 2.97061L5.67471 4.95107C4.66924 5.98701 4.43311 7.54092 5.10342 8.82061L6.36787 11.2581L7.44951 10.6944L6.18506 8.25693C5.64424 7.21338 6.04795 5.92607 7.0915 5.38525C8.13506 4.84443 9.42236 5.24814 9.96319 6.2917C10.0317 6.42881 10.0851 6.56592 10.1308 6.71826L10.1536 6.79443L8.18838 7.56377L8.63018 8.69873L10.4735 7.98271V7.99033C10.3593 8.42451 10.3288 8.87393 10.405 9.32334L9.07959 9.84131L9.52139 10.9763L10.8315 10.4659C11.1362 10.9763 11.6618 11.4485 11.6618 11.4485L9.96319 12.1112L10.1612 12.6063L9.14815 13.2843L7.65518 12.294C7.37334 12.1036 7.0001 12.1798 6.80967 12.4616C6.74111 12.5606 6.71064 12.6825 6.71064 12.7968V25.5936H7.9294V13.9317L8.81299 14.5183C9.01865 14.6554 9.28525 14.6554 9.49092 14.5183L10.9839 13.528L12.4769 14.5183C12.6825 14.6554 12.9491 14.6554 13.1548 14.5183L14.6478 13.528L16.1407 14.5183C16.3464 14.6554 16.613 14.6554 16.8187 14.5183L18.3116 13.528L19.8046 14.5183C20.0103 14.6554 20.2769 14.6554 20.4825 14.5183L21.9755 13.528L23.4685 14.5183C23.6741 14.6554 23.9407 14.6554 24.1464 14.5183L25.03 13.9317V34.1249H22.5925V35.3436H32.9519C33.287 35.3436 33.5612 35.0694 33.5612 34.7343V12.7968C33.5612 12.614 33.4774 12.4464 33.3403 12.3321L35.1456 6.92393C35.6712 5.20244 35.1075 3.30576 33.6983 2.1708ZM17.5728 10.1612C17.6261 10.245 17.6642 10.3364 17.687 10.4354L17.2681 11.0524L16.3388 8.76728L17.1538 7.56377C16.9405 8.43975 17.0776 9.41475 17.5728 10.1612ZM13.3224 12.9415C13.4823 12.294 13.3528 11.6161 12.9796 11.0677C12.6216 10.5497 12.0503 10.1917 11.7608 9.62803C11.6085 9.33096 11.5476 8.98818 11.5856 8.65303C11.6771 7.90654 12.2407 7.28193 12.3245 6.53545C12.3855 5.98701 12.1646 5.45381 12.0503 4.91299C11.7837 3.71709 12.5378 2.50596 13.8251 2.44502C14.4497 2.42217 15.0438 2.68877 15.4399 3.16865C15.7903 3.60283 15.9503 4.17412 16.3007 4.61592C16.5597 4.94346 16.9101 5.17959 17.3062 5.29385C17.6946 5.4081 18.1517 5.42334 18.4106 5.73564C17.9612 6.05557 17.5956 6.47451 17.3442 6.96963L16.4759 6.39072L15.7903 7.38096L14.7392 4.81396L13.6194 5.271L14.663 7.8456L13.4747 7.61709L13.231 8.80537L15.1886 9.24717L16.1407 11.4866L14.9524 11.2581L14.8077 11.9741C14.8001 11.9817 13.6347 12.713 13.3224 12.9415ZM15.4399 12.6063L16.6968 12.8653L16.7806 13.071L16.453 13.2843L15.4399 12.6063ZM23.3009 12.972L23.7731 12.6521L23.598 13.17L23.3009 12.972ZM26.203 13.9317L27.0866 14.5183C27.2923 14.6554 27.5589 14.6554 27.7646 14.5183L28.6481 13.9317V30.819L26.2106 33.2565V13.9317H26.203ZM32.2968 13.9317V33.2565L29.8593 30.819V13.9317L30.7429 14.5183C30.9485 14.6554 31.2151 14.6554 31.4208 14.5183L32.2968 13.9317ZM29.2499 31.9388L31.436 34.1249H27.0638L29.2499 31.9388ZM33.9421 6.53545L31.8702 12.7511L31.078 13.2767L29.5851 12.2864C29.3794 12.1493 29.1128 12.1493 28.9071 12.2864L27.4142 13.2767C27.4142 13.2767 25.8907 12.2636 25.8755 12.256C25.6774 12.1493 25.4337 12.1645 25.2509 12.2864L25.1595 12.3474L27.7569 4.5626C28.0769 3.61045 28.8538 2.89443 29.8974 2.58213C30.979 2.26221 32.114 2.46025 32.9366 3.11533C33.9497 3.93799 34.3534 5.30147 33.9421 6.53545Z" fill="black"/>
<path d="M28.5288 6.11157L32.1864 5.5032L32.3863 6.70489L28.7287 7.31326L28.5288 6.11157Z" fill="black"/>
<path d="M27.3091 9.76587L30.9667 9.1575L31.1666 10.3592L27.509 10.9676L27.3091 9.76587Z" fill="black"/>
<path d="M19.9949 28.0312C19.3246 28.0236 18.6771 28.2902 18.2049 28.7701C18.1973 28.7625 18.1896 28.7548 18.182 28.7396L18.083 28.3359C18.083 28.3283 18.083 28.3283 18.0754 28.3207C17.8393 27.4904 18.3115 26.4392 18.7229 26.0279C18.9057 25.8451 18.9514 25.5556 18.8371 25.3271L18.2277 24.1084C18.0754 23.8037 17.7098 23.6818 17.4127 23.8341C15.7064 24.6796 14.6324 26.424 14.64 28.3207V28.6482C14.4953 28.5416 14.3354 28.4425 14.1754 28.3511C12.9947 27.7189 11.4637 28.115 10.7629 29.2271C10.3592 29.8746 10.2525 30.7505 10.4811 31.5199L11.2732 34.163C10.2221 36.273 7.6627 37.1337 5.55273 36.0902C3.46563 35.0543 2.59727 32.533 3.60273 30.4306C3.61797 30.4002 3.6332 30.3697 3.64844 30.3392L3.67129 32.4111L4.89004 32.3959L4.85195 29.8593L7.28184 29.9736L7.34277 28.7548L5.22519 28.6558C5.85742 28.2673 6.58867 28.0541 7.32754 28.0312C8.21113 28.0084 9.07949 28.2597 9.81074 28.7548L10.4887 27.7418C9.11758 26.8201 7.40371 26.5687 5.82695 27.0486L6.08594 26.4392L4.96621 25.9593L4.12832 27.9093C4.06738 27.955 3.99883 28.0084 3.93789 28.0617L2.0793 26.2031L1.21855 27.0638L3.09238 28.9377C3.0543 28.991 3.01621 29.0443 2.97812 29.0976L0.982422 29.9507L1.4623 31.0705L2.16309 30.7658C1.31758 33.6755 2.99336 36.7148 5.90312 37.5603C7.82266 38.1164 9.89453 37.5832 11.3113 36.1664C11.4561 36.0216 11.5932 35.8617 11.7227 35.7017L11.8445 36.0978C12.2178 37.347 13.5279 38.0478 14.7771 37.6746C14.9523 37.6212 15.1123 37.5527 15.2723 37.4613C16.0111 37.8726 16.91 37.8726 17.6488 37.4613C18.7762 38.1087 20.2158 37.7127 20.8633 36.5853C20.9547 36.433 21.0232 36.2654 21.0766 36.0902L22.4477 31.5123C22.5314 31.2076 22.5695 30.8877 22.5543 30.5677C22.5467 29.1738 21.4041 28.0312 19.9949 28.0312ZM17.4203 25.2357L17.5574 25.5099C17.0775 26.1726 16.7348 27.14 16.7957 28.0541C16.6205 28.0236 16.1406 28.0007 15.8512 28.1074C15.9121 26.9572 16.491 25.906 17.4203 25.2357ZM13.01 35.755L11.6389 31.1771C11.5094 30.7429 11.5703 30.225 11.7836 29.8822C12.134 29.3185 12.9795 29.1052 13.5889 29.4328C13.8783 29.5851 13.9926 29.6918 14.1068 29.8365C14.0535 30.0421 14.023 30.2554 14.023 30.4687V35.3437C14.023 35.7627 14.1297 36.174 14.3354 36.5396C13.7488 36.6615 13.1775 36.3187 13.01 35.755ZM15.2342 35.3437V30.4687C15.2342 29.7984 15.7826 29.25 16.4529 29.25C17.1232 29.25 17.6717 29.7984 17.6717 30.4687V35.3437C17.6717 36.014 17.1232 36.5625 16.4529 36.5625C15.7826 36.5625 15.2342 36.014 15.2342 35.3437ZM21.2746 31.1771L19.9035 35.755C19.7359 36.3187 19.157 36.6615 18.5781 36.5396C18.7838 36.174 18.8904 35.7627 18.8904 35.3437V30.4687C18.8904 30.2783 18.8676 30.0955 18.8219 29.9127C18.9818 29.6689 19.3475 29.25 19.9873 29.25C20.7262 29.25 21.3203 29.8517 21.3203 30.583C21.3355 30.781 21.3203 30.9867 21.2746 31.1771Z" fill="black"/>
</svg>
